<svg width="34" height="38" viewBox="0 0 34 38" fill="none" xmlns="http://www.w3.org/2000/svg">
<mask id="mask0_1_150" style="mask-type:alpha" maskUnits="userSpaceOnUse" x="0" y="0" width="34" height="38">
<ellipse cx="16.7715" cy="18.9356" rx="16.7716" ry="18.9356" transform="rotate(-180 16.7715 18.9356)" fill="#F9F1F5"/>
</mask>
<g mask="url(#mask0_1_150)">
<path d="M13.5 33.1724C13.5 34.8969 14.9068 36.3204 16.6092 36.0454C19.2746 35.6149 21.8332 34.6336 24.1169 33.1513C27.2778 31.0996 29.7765 28.1759 31.3107 24.734C32.8449 21.2921 33.349 17.4793 32.7619 13.757C32.1748 10.0346 30.5217 6.56208 28.0026 3.75945C25.4835 0.956806 22.2063 -1.05588 18.5674 -2.03516C14.9285 -3.01443 11.0838 -2.91834 7.49831 -1.75851C3.91285 -0.598686 0.740264 1.5752 -1.6357 4.50017C-3.35228 6.61341 -4.59991 9.05329 -5.31119 11.6578C-5.7655 13.3214 -4.49953 14.8715 -2.78479 15.0547C-1.07004 15.238 0.434379 13.9738 1.01279 12.3492C1.5156 10.9369 2.25691 9.61296 3.21161 8.43765C4.82665 6.44941 6.9832 4.97173 9.42039 4.18335C11.8576 3.39496 14.471 3.32964 16.9445 3.9953C19.4181 4.66096 21.6457 6.02906 23.3581 7.93414C25.0704 9.83922 26.1941 12.1996 26.5932 14.7299C26.9922 17.2602 26.6496 19.8518 25.6067 22.1915C24.5638 24.5311 22.8654 26.5184 20.7168 27.9131C19.4467 28.7375 18.0515 29.3339 16.5937 29.6838C14.9169 30.0863 13.5 31.4479 13.5 33.1724Z" fill="url(#paint0_linear_1_150)"/>
</g>
<defs>
<linearGradient id="paint0_linear_1_150" x1="-6" y1="16.7949" x2="33" y2="16.7949" gradientUnits="userSpaceOnUse">
<stop stop-color="#E57432"/>
<stop offset="1" stop-color="#FF9C65"/>
</linearGradient>
</defs>
</svg>
