<svg xmlns="http://www.w3.org/2000/svg" viewBox="0 0 512 512" role="img" aria-labelledby="title desc">
  <title id="title">PardnaBook</title>
  <desc id="desc">A square app icon with layered geometric shapes.</desc>
  <rect width="512" height="512" rx="112" fill="#111827"/>
  <path d="M113 129c0-8.284 6.716-15 15-15h256c8.284 0 15 6.716 15 15v254c0 8.284-6.716 15-15 15H200.5L113 486V129Z" fill="#f8fafc"/>
  <path d="M154 168h175c8.284 0 15 6.716 15 15v15c0 8.284-6.716 15-15 15H154c-8.284 0-15-6.716-15-15v-15c0-8.284 6.716-15 15-15Zm0 80h124c8.284 0 15 6.716 15 15v15c0 8.284-6.716 15-15 15H154c-8.284 0-15-6.716-15-15v-15c0-8.284 6.716-15 15-15Zm0 80h82c8.284 0 15 6.716 15 15v15c0 8.284-6.716 15-15 15h-82c-8.284 0-15-6.716-15-15v-15c0-8.284 6.716-15 15-15Z" fill="#f97316"/>
</svg>