<svg width="178" height="44" viewBox="0 0 178 44" fill="none" xmlns="http://www.w3.org/2000/svg">
<path d="M21.6407 3.46529C21.6407 1.55146 23.2019 -0.0283131 25.0913 0.276851C28.0493 0.754621 30.8888 1.84367 33.4231 3.48873C36.931 5.76569 39.704 9.01029 41.4067 12.8301C43.1093 16.6498 43.6687 20.8811 43.0172 25.0122C42.3657 29.1432 40.5311 32.9969 37.7355 36.1072C34.9398 39.2175 31.3028 41.4512 27.2644 42.5379C23.226 43.6247 18.9592 43.5181 14.9802 42.2309C11.0011 40.9438 7.48021 38.5312 4.84342 35.2852C2.93839 32.9399 1.55379 30.2322 0.764427 27.3417C0.26024 25.4955 1.66519 23.7753 3.56818 23.5719C5.47117 23.3686 7.14075 24.7715 7.78265 26.5745C8.34066 28.1418 9.16335 29.6111 10.2229 30.9154C12.0152 33.1219 14.4085 34.7618 17.1132 35.6368C19.818 36.5117 22.7183 36.5842 25.4634 35.8455C28.2085 35.1067 30.6807 33.5884 32.581 31.4742C34.4813 29.36 35.7284 26.7405 36.1712 23.9324C36.6141 21.1244 36.2339 18.2482 35.0765 15.6517C33.9191 13.0553 32.0342 10.8498 29.6497 9.30202C28.2402 8.3871 26.6918 7.72519 25.0741 7.33687C23.2131 6.89017 21.6407 5.37912 21.6407 3.46529Z" fill="url(#paint0_linear_228_5136)"/>
<ellipse cx="23.2637" cy="18.9356" rx="16.7716" ry="18.9356" fill="#F9F1F5"/>
<path d="M54.8846 23.6565H50.9643V21.1839H54.8846C55.4904 21.1839 55.9835 21.0852 56.3639 20.888C56.7443 20.6837 57.0226 20.4019 57.1987 20.0427C57.3748 19.6834 57.4628 19.2783 57.4628 18.8275C57.4628 18.3696 57.3748 17.9434 57.1987 17.5489C57.0226 17.1544 56.7443 16.8374 56.3639 16.5979C55.9835 16.3584 55.4904 16.2386 54.8846 16.2386H52.0632V29.1406H48.8932V13.7554H54.8846C56.0892 13.7554 57.1212 13.9738 57.9806 14.4106C58.8471 14.8403 59.5093 15.4355 59.9672 16.1964C60.4251 16.9572 60.654 17.8272 60.654 18.8063C60.654 19.7996 60.4251 20.659 59.9672 21.3846C59.5093 22.1102 58.8471 22.6702 57.9806 23.0647C57.1212 23.4592 56.0892 23.6565 54.8846 23.6565ZM69.7773 26.5623V21.4692C69.7773 21.1028 69.7175 20.7894 69.5977 20.5287C69.4779 20.261 69.2913 20.0532 69.0377 19.9053C68.7911 19.7573 68.4706 19.6834 68.0761 19.6834C67.738 19.6834 67.4456 19.7433 67.1991 19.863C66.9525 19.9757 66.7623 20.1413 66.6284 20.3597C66.4946 20.571 66.4277 20.8211 66.4277 21.1099H63.3845C63.3845 20.6238 63.4972 20.1624 63.7226 19.7256C63.948 19.2889 64.2756 18.905 64.7053 18.5739C65.135 18.2357 65.6457 17.9716 66.2375 17.7814C66.8363 17.5912 67.5055 17.4961 68.2452 17.4961C69.1328 17.4961 69.9218 17.644 70.6121 17.9399C71.3025 18.2357 71.8449 18.6795 72.2394 19.2713C72.6409 19.863 72.8417 20.6027 72.8417 21.4903V26.3827C72.8417 27.0097 72.8804 27.5239 72.9579 27.9254C73.0354 28.3199 73.1481 28.6651 73.2961 28.961V29.1406H70.2211C70.0732 28.8307 69.9605 28.4432 69.883 27.9783C69.8126 27.5063 69.7773 27.0343 69.7773 26.5623ZM70.1789 22.1771L70.2 23.8995H68.4988C68.0972 23.8995 67.7485 23.9453 67.4527 24.0369C67.1568 24.1285 66.9138 24.2588 66.7235 24.4279C66.5333 24.5899 66.3925 24.7801 66.3009 24.9985C66.2163 25.2168 66.1741 25.4564 66.1741 25.717C66.1741 25.9776 66.234 26.2136 66.3537 26.425C66.4735 26.6293 66.6461 26.7913 66.8715 26.911C67.0969 27.0238 67.3611 27.0801 67.664 27.0801C68.1219 27.0801 68.5199 26.9885 68.858 26.8054C69.1962 26.6222 69.4568 26.3968 69.64 26.1291C69.8302 25.8614 69.9288 25.6078 69.9358 25.3683L70.7389 26.6574C70.6262 26.9463 70.4712 27.2457 70.274 27.5556C70.0838 27.8656 69.8407 28.1579 69.5449 28.4327C69.249 28.7003 68.8933 28.9222 68.4776 29.0984C68.062 29.2674 67.5689 29.352 66.9983 29.352C66.2727 29.352 65.614 29.2075 65.0223 28.9187C64.4376 28.6229 63.9727 28.2178 63.6275 27.7035C63.2894 27.1823 63.1203 26.5905 63.1203 25.9283C63.1203 25.3295 63.233 24.7977 63.4584 24.3328C63.6838 23.8678 64.0149 23.4768 64.4517 23.1598C64.8955 22.8358 65.4485 22.5928 66.1107 22.4307C66.7729 22.2617 67.5407 22.1771 68.4142 22.1771H70.1789ZM79.3128 20.2012V29.1406H76.2696V17.7074H79.1331L79.3128 20.2012ZM82.7575 17.6334L82.7047 20.4548C82.5568 20.4336 82.3771 20.416 82.1658 20.4019C81.9615 20.3808 81.7748 20.3702 81.6058 20.3702C81.176 20.3702 80.8027 20.4266 80.4857 20.5393C80.1757 20.645 79.9151 20.8035 79.7037 21.0148C79.4995 21.2261 79.3445 21.4833 79.2388 21.7862C79.1402 22.0891 79.0838 22.4343 79.0697 22.8217L78.4569 22.6315C78.4569 21.8918 78.5308 21.212 78.6788 20.5921C78.8267 19.9652 79.0416 19.4192 79.3233 18.9543C79.6122 18.4893 79.9644 18.1301 80.38 17.8765C80.7956 17.6229 81.2711 17.4961 81.8065 17.4961C81.9756 17.4961 82.1482 17.5102 82.3243 17.5383C82.5004 17.5595 82.6448 17.5912 82.7575 17.6334ZM91.8175 26.6469V12.9101H94.8818V29.1406H92.1239L91.8175 26.6469ZM84.5898 23.5614V23.3395C84.5898 22.466 84.6884 21.6735 84.8857 20.962C85.0829 20.2434 85.3718 19.627 85.7522 19.1128C86.1326 18.5985 86.601 18.2005 87.1575 17.9187C87.7141 17.637 88.3481 17.4961 89.0596 17.4961C89.7288 17.4961 90.3135 17.637 90.8136 17.9187C91.3208 18.2005 91.7506 18.602 92.1028 19.1233C92.462 19.6376 92.7509 20.2469 92.9693 20.9514C93.1876 21.6488 93.3461 22.4131 93.4448 23.2444V23.7304C93.3461 24.5265 93.1876 25.2661 92.9693 25.9495C92.7509 26.6328 92.462 27.2316 92.1028 27.7458C91.7506 28.253 91.3208 28.6475 90.8136 28.9293C90.3064 29.2111 89.7147 29.352 89.0384 29.352C88.3269 29.352 87.6929 29.2075 87.1364 28.9187C86.5869 28.6299 86.122 28.2248 85.7416 27.7035C85.3682 27.1823 85.0829 26.5694 84.8857 25.8649C84.6884 25.1605 84.5898 24.3926 84.5898 23.5614ZM87.633 23.3395V23.5614C87.633 24.0334 87.6683 24.4736 87.7387 24.8822C87.8162 25.2908 87.9395 25.6536 88.1085 25.9706C88.2847 26.2806 88.5101 26.5236 88.7848 26.6997C89.0666 26.8688 89.4083 26.9533 89.8098 26.9533C90.3311 26.9533 90.7608 26.8371 91.0989 26.6046C91.4371 26.3651 91.6942 26.0375 91.8703 25.6219C92.0535 25.2063 92.1591 24.7272 92.1873 24.1848V22.8006C92.1662 22.3568 92.1028 21.9588 91.9971 21.6065C91.8985 21.2473 91.7506 20.9408 91.5533 20.6872C91.3631 20.4336 91.1236 20.2364 90.8348 20.0955C90.553 19.9546 90.2184 19.8841 89.8309 19.8841C89.4364 19.8841 89.0983 19.9757 88.8165 20.1589C88.5347 20.335 88.3058 20.578 88.1297 20.888C87.9606 21.1979 87.8338 21.5643 87.7493 21.9869C87.6718 22.4026 87.633 22.8534 87.633 23.3395ZM101.321 20.1483V29.1406H98.278V17.7074H101.131L101.321 20.1483ZM100.877 23.0225H100.053C100.053 22.1771 100.162 21.4163 100.381 20.7401C100.599 20.0567 100.906 19.4756 101.3 18.9965C101.695 18.5105 102.163 18.1406 102.705 17.887C103.255 17.6264 103.868 17.4961 104.544 17.4961C105.079 17.4961 105.569 17.5736 106.013 17.7285C106.457 17.8835 106.837 18.1301 107.154 18.4682C107.478 18.8063 107.725 19.2537 107.894 19.8102C108.07 20.3667 108.158 21.0465 108.158 21.8496V29.1406H105.094V21.839C105.094 21.3318 105.023 20.9373 104.882 20.6555C104.741 20.3737 104.534 20.1765 104.259 20.0638C103.991 19.944 103.66 19.8841 103.265 19.8841C102.857 19.8841 102.501 19.9652 102.198 20.1272C101.902 20.2892 101.656 20.5146 101.459 20.8035C101.268 21.0852 101.124 21.4163 101.025 21.7967C100.927 22.1771 100.877 22.5857 100.877 23.0225ZM117.725 26.5623V21.4692C117.725 21.1028 117.665 20.7894 117.545 20.5287C117.426 20.261 117.239 20.0532 116.985 19.9053C116.739 19.7573 116.418 19.6834 116.024 19.6834C115.686 19.6834 115.393 19.7433 115.147 19.863C114.9 19.9757 114.71 20.1413 114.576 20.3597C114.442 20.571 114.375 20.8211 114.375 21.1099H111.332C111.332 20.6238 111.445 20.1624 111.67 19.7256C111.896 19.2889 112.223 18.905 112.653 18.5739C113.083 18.2357 113.593 17.9716 114.185 17.7814C114.784 17.5912 115.453 17.4961 116.193 17.4961C117.08 17.4961 117.869 17.644 118.56 17.9399C119.25 18.2357 119.793 18.6795 120.187 19.2713C120.589 19.863 120.789 20.6027 120.789 21.4903V26.3827C120.789 27.0097 120.828 27.5239 120.906 27.9254C120.983 28.3199 121.096 28.6651 121.244 28.961V29.1406H118.169C118.021 28.8307 117.908 28.4432 117.831 27.9783C117.76 27.5063 117.725 27.0343 117.725 26.5623ZM118.127 22.1771L118.148 23.8995H116.446C116.045 23.8995 115.696 23.9453 115.4 24.0369C115.104 24.1285 114.861 24.2588 114.671 24.4279C114.481 24.5899 114.34 24.7801 114.249 24.9985C114.164 25.2168 114.122 25.4564 114.122 25.717C114.122 25.9776 114.182 26.2136 114.301 26.425C114.421 26.6293 114.594 26.7913 114.819 26.911C115.045 27.0238 115.309 27.0801 115.612 27.0801C116.07 27.0801 116.468 26.9885 116.806 26.8054C117.144 26.6222 117.405 26.3968 117.588 26.1291C117.778 25.8614 117.876 25.6078 117.884 25.3683L118.687 26.6574C118.574 26.9463 118.419 27.2457 118.222 27.5556C118.031 27.8656 117.788 28.1579 117.493 28.4327C117.197 28.7003 116.841 28.9222 116.425 29.0984C116.01 29.2674 115.517 29.352 114.946 29.352C114.22 29.352 113.562 29.2075 112.97 28.9187C112.385 28.6229 111.92 28.2178 111.575 27.7035C111.237 27.1823 111.068 26.5905 111.068 25.9283C111.068 25.3295 111.181 24.7977 111.406 24.3328C111.632 23.8678 111.963 23.4768 112.399 23.1598C112.843 22.8358 113.396 22.5928 114.058 22.4307C114.721 22.2617 115.488 22.1771 116.362 22.1771H118.127ZM130.431 22.3885H126.479L126.457 20.2117H129.775C130.36 20.2117 130.839 20.1378 131.212 19.9898C131.586 19.8348 131.864 19.6129 132.047 19.3241C132.237 19.0282 132.333 18.669 132.333 18.2463C132.333 17.7673 132.241 17.3798 132.058 17.084C131.882 16.7881 131.603 16.5732 131.223 16.4394C130.85 16.3055 130.367 16.2386 129.775 16.2386H127.577V29.1406H124.407V13.7554H129.775C130.67 13.7554 131.47 13.84 132.174 14.009C132.886 14.1781 133.488 14.4352 133.981 14.7804C134.474 15.1256 134.851 15.5623 135.112 16.0907C135.372 16.612 135.503 17.2319 135.503 17.9504C135.503 18.5844 135.358 19.1691 135.069 19.7045C134.788 20.2399 134.34 20.6767 133.727 21.0148C133.122 21.3529 132.329 21.5396 131.35 21.5748L130.431 22.3885ZM130.293 29.1406H125.612L126.848 26.668H130.293C130.85 26.668 131.304 26.5799 131.656 26.4038C132.008 26.2207 132.269 25.9741 132.438 25.6642C132.607 25.3542 132.692 24.9985 132.692 24.5969C132.692 24.1461 132.614 23.7551 132.459 23.424C132.311 23.0929 132.072 22.8393 131.741 22.6632C131.41 22.48 130.973 22.3885 130.431 22.3885H127.377L127.398 20.2117H131.202L131.931 21.0676C132.868 21.0535 133.622 21.2191 134.192 21.5643C134.77 21.9024 135.189 22.3427 135.45 22.8851C135.717 23.4275 135.851 24.0087 135.851 24.6286C135.851 25.6149 135.636 26.4461 135.207 27.1224C134.777 27.7916 134.146 28.2953 133.315 28.6334C132.491 28.9716 131.484 29.1406 130.293 29.1406ZM138.635 23.5402V23.3183C138.635 22.48 138.754 21.7087 138.994 21.0042C139.233 20.2927 139.582 19.6763 140.04 19.155C140.498 18.6337 141.061 18.2287 141.731 17.9399C142.4 17.644 143.168 17.4961 144.034 17.4961C144.901 17.4961 145.672 17.644 146.348 17.9399C147.025 18.2287 147.592 18.6337 148.05 19.155C148.514 19.6763 148.867 20.2927 149.106 21.0042C149.346 21.7087 149.465 22.48 149.465 23.3183V23.5402C149.465 24.3715 149.346 25.1429 149.106 25.8544C148.867 26.5588 148.514 27.1752 148.05 27.7035C147.592 28.2248 147.028 28.6299 146.359 28.9187C145.69 29.2075 144.922 29.352 144.055 29.352C143.189 29.352 142.417 29.2075 141.741 28.9187C141.072 28.6299 140.505 28.2248 140.04 27.7035C139.582 27.1752 139.233 26.5588 138.994 25.8544C138.754 25.1429 138.635 24.3715 138.635 23.5402ZM141.678 23.3183V23.5402C141.678 24.0193 141.72 24.4666 141.805 24.8822C141.889 25.2978 142.023 25.6642 142.206 25.9812C142.396 26.2911 142.643 26.5342 142.946 26.7103C143.249 26.8864 143.619 26.9744 144.055 26.9744C144.478 26.9744 144.841 26.8864 145.144 26.7103C145.447 26.5342 145.69 26.2911 145.873 25.9812C146.056 25.6642 146.19 25.2978 146.274 24.8822C146.366 24.4666 146.412 24.0193 146.412 23.5402V23.3183C146.412 22.8534 146.366 22.4166 146.274 22.0081C146.19 21.5924 146.052 21.2261 145.862 20.9091C145.679 20.5851 145.436 20.3315 145.133 20.1483C144.83 19.9652 144.464 19.8736 144.034 19.8736C143.604 19.8736 143.238 19.9652 142.935 20.1483C142.639 20.3315 142.396 20.5851 142.206 20.9091C142.023 21.2261 141.889 21.5924 141.805 22.0081C141.72 22.4166 141.678 22.8534 141.678 23.3183ZM151.932 23.5402V23.3183C151.932 22.48 152.051 21.7087 152.291 21.0042C152.531 20.2927 152.879 19.6763 153.337 19.155C153.795 18.6337 154.359 18.2287 155.028 17.9399C155.697 17.644 156.465 17.4961 157.331 17.4961C158.198 17.4961 158.969 17.644 159.645 17.9399C160.322 18.2287 160.889 18.6337 161.347 19.155C161.812 19.6763 162.164 20.2927 162.403 21.0042C162.643 21.7087 162.763 22.48 162.763 23.3183V23.5402C162.763 24.3715 162.643 25.1429 162.403 25.8544C162.164 26.5588 161.812 27.1752 161.347 27.7035C160.889 28.2248 160.325 28.6299 159.656 28.9187C158.987 29.2075 158.219 29.352 157.352 29.352C156.486 29.352 155.715 29.2075 155.038 28.9187C154.369 28.6299 153.802 28.2248 153.337 27.7035C152.879 27.1752 152.531 26.5588 152.291 25.8544C152.051 25.1429 151.932 24.3715 151.932 23.5402ZM154.975 23.3183V23.5402C154.975 24.0193 155.017 24.4666 155.102 24.8822C155.186 25.2978 155.32 25.6642 155.503 25.9812C155.693 26.2911 155.94 26.5342 156.243 26.7103C156.546 26.8864 156.916 26.9744 157.352 26.9744C157.775 26.9744 158.138 26.8864 158.441 26.7103C158.744 26.5342 158.987 26.2911 159.17 25.9812C159.353 25.6642 159.487 25.2978 159.571 24.8822C159.663 24.4666 159.709 24.0193 159.709 23.5402V23.3183C159.709 22.8534 159.663 22.4166 159.571 22.0081C159.487 21.5924 159.35 21.2261 159.159 20.9091C158.976 20.5851 158.733 20.3315 158.43 20.1483C158.127 19.9652 157.761 19.8736 157.331 19.8736C156.902 19.8736 156.535 19.9652 156.232 20.1483C155.937 20.3315 155.693 20.5851 155.503 20.9091C155.32 21.2261 155.186 21.5924 155.102 22.0081C155.017 22.4166 154.975 22.8534 154.975 23.3183ZM168.758 12.8995V29.1406H165.715V12.8995H168.758ZM175.965 17.7074L170.998 23.3712L168.336 26.0657L167.226 23.8678L169.339 21.1839L172.309 17.7074H175.965ZM172.805 29.1406L169.424 23.8572L171.527 22.0186L176.313 29.1406H172.805Z" fill="url(#paint1_linear_228_5136)"/>
<defs>
<linearGradient id="paint0_linear_228_5136" x1="0" y1="21.6407" x2="43.2814" y2="21.6407" gradientUnits="userSpaceOnUse">
<stop stop-color="#E57432"/>
<stop offset="1" stop-color="#FF9C65"/>
</linearGradient>
<linearGradient id="paint1_linear_228_5136" x1="47.5195" y1="21.6406" x2="177.52" y2="21.6406" gradientUnits="userSpaceOnUse">
<stop stop-color="#E57432"/>
<stop offset="1" stop-color="#FF9C65"/>
</linearGradient>
</defs>
</svg>
