<svg width="178" height="44" viewBox="0 0 178 44" fill="none" xmlns="http://www.w3.org/2000/svg">
<mask id="mask0_1_149" style="mask-type:alpha" maskUnits="userSpaceOnUse" x="0" y="2" width="34" height="39">
<ellipse cx="16.7715" cy="21.6407" rx="16.7716" ry="18.9356" transform="rotate(-180 16.7715 21.6407)" fill="#F9F1F5"/>
</mask>
<g mask="url(#mask0_1_149)">
<path d="M13.5 35.8775C13.5 37.602 14.9068 39.0255 16.6092 38.7505C19.2746 38.32 21.8332 37.3387 24.1169 35.8564C27.2778 33.8047 29.7765 30.881 31.3107 27.4391C32.8449 23.9972 33.349 20.1844 32.7619 16.4621C32.1748 12.7397 30.5217 9.26717 28.0026 6.46453C25.4835 3.66189 22.2063 1.64921 18.5674 0.66993C14.9285 -0.309345 11.0838 -0.213257 7.49831 0.946572C3.91285 2.1064 0.740265 4.28028 -1.6357 7.20526C-3.35228 9.3185 -4.59991 11.7584 -5.31119 14.3629C-5.7655 16.0265 -4.49953 17.5766 -2.78479 17.7598V17.7598C-1.07004 17.9431 0.434379 16.6789 1.01279 15.0543C1.5156 13.642 2.25691 12.318 3.21161 11.1427C4.82665 9.1545 6.9832 7.67682 9.42039 6.88843C11.8576 6.10004 14.471 6.03473 16.9445 6.70039C19.4181 7.36604 21.6457 8.73415 23.3581 10.6392C25.0704 12.5443 26.1941 14.9047 26.5932 17.435C26.9922 19.9652 26.6496 22.5569 25.6067 24.8965C24.5638 27.2362 22.8654 29.2235 20.7168 30.6181C19.4467 31.4426 18.0515 32.039 16.5937 32.3889C14.9169 32.7914 13.5 34.153 13.5 35.8775V35.8775Z" fill="url(#paint0_linear_1_149)"/>
</g>
<path d="M54.885 23.6565H50.9648V21.1839H54.885C55.4909 21.1839 55.984 21.0852 56.3644 20.888C56.7448 20.6837 57.0231 20.4019 57.1992 20.0427C57.3753 19.6834 57.4633 19.2783 57.4633 18.8275C57.4633 18.3696 57.3753 17.9434 57.1992 17.5489C57.0231 17.1544 56.7448 16.8374 56.3644 16.5979C55.984 16.3584 55.4909 16.2386 54.885 16.2386H52.0637V29.1406H48.8937V13.7554H54.885C56.0897 13.7554 57.1217 13.9738 57.9811 14.4106C58.8476 14.8403 59.5098 15.4355 59.9677 16.1964C60.4255 16.9572 60.6545 17.8272 60.6545 18.8063C60.6545 19.7996 60.4255 20.659 59.9677 21.3846C59.5098 22.1102 58.8476 22.6702 57.9811 23.0647C57.1217 23.4592 56.0897 23.6565 54.885 23.6565ZM69.7778 26.5623V21.4692C69.7778 21.1028 69.718 20.7894 69.5982 20.5287C69.4784 20.261 69.2918 20.0532 69.0382 19.9053C68.7916 19.7573 68.4711 19.6834 68.0766 19.6834C67.7384 19.6834 67.4461 19.7433 67.1995 19.863C66.953 19.9757 66.7628 20.1413 66.6289 20.3597C66.4951 20.571 66.4282 20.8211 66.4282 21.1099H63.3849C63.3849 20.6238 63.4977 20.1624 63.7231 19.7256C63.9485 19.2889 64.2761 18.905 64.7058 18.5739C65.1355 18.2357 65.6462 17.9716 66.238 17.7814C66.8367 17.5912 67.506 17.4961 68.2456 17.4961C69.1333 17.4961 69.9222 17.644 70.6126 17.9399C71.303 18.2357 71.8454 18.6795 72.2399 19.2713C72.6414 19.863 72.8422 20.6027 72.8422 21.4903V26.3827C72.8422 27.0097 72.8809 27.5239 72.9584 27.9254C73.0359 28.3199 73.1486 28.6651 73.2966 28.961V29.1406H70.2216C70.0737 28.8307 69.961 28.4432 69.8835 27.9783C69.8131 27.5063 69.7778 27.0343 69.7778 26.5623ZM70.1794 22.1771L70.2005 23.8995H68.4993C68.0977 23.8995 67.749 23.9453 67.4531 24.0369C67.1573 24.1285 66.9142 24.2588 66.724 24.4279C66.5338 24.5899 66.3929 24.7801 66.3014 24.9985C66.2168 25.2168 66.1746 25.4564 66.1746 25.717C66.1746 25.9776 66.2344 26.2136 66.3542 26.425C66.474 26.6293 66.6465 26.7913 66.872 26.911C67.0974 27.0238 67.3616 27.0801 67.6645 27.0801C68.1224 27.0801 68.5204 26.9885 68.8585 26.8054C69.1967 26.6222 69.4573 26.3968 69.6405 26.1291C69.8307 25.8614 69.9293 25.6078 69.9363 25.3683L70.7394 26.6574C70.6267 26.9463 70.4717 27.2457 70.2745 27.5556C70.0843 27.8656 69.8412 28.1579 69.5454 28.4327C69.2495 28.7003 68.8937 28.9222 68.4781 29.0984C68.0625 29.2674 67.5694 29.352 66.9988 29.352C66.2732 29.352 65.6145 29.2075 65.0228 28.9187C64.4381 28.6229 63.9732 28.2178 63.628 27.7035C63.2898 27.1823 63.1208 26.5905 63.1208 25.9283C63.1208 25.3295 63.2335 24.7977 63.4589 24.3328C63.6843 23.8678 64.0154 23.4768 64.4522 23.1598C64.896 22.8358 65.449 22.5928 66.1112 22.4307C66.7733 22.2617 67.5412 22.1771 68.4147 22.1771H70.1794ZM79.3133 20.2012V29.1406H76.27V17.7074H79.1336L79.3133 20.2012ZM82.758 17.6334L82.7052 20.4548C82.5573 20.4336 82.3776 20.416 82.1663 20.4019C81.962 20.3808 81.7753 20.3702 81.6063 20.3702C81.1765 20.3702 80.8032 20.4266 80.4862 20.5393C80.1762 20.645 79.9156 20.8035 79.7042 21.0148C79.4999 21.2261 79.345 21.4833 79.2393 21.7862C79.1407 22.0891 79.0843 22.4343 79.0702 22.8217L78.4574 22.6315C78.4574 21.8918 78.5313 21.212 78.6793 20.5921C78.8272 19.9652 79.0421 19.4192 79.3238 18.9543C79.6127 18.4893 79.9649 18.1301 80.3805 17.8765C80.7961 17.6229 81.2716 17.4961 81.807 17.4961C81.9761 17.4961 82.1487 17.5102 82.3248 17.5383C82.5009 17.5595 82.6453 17.5912 82.758 17.6334ZM91.818 26.6469V12.9101H94.8823V29.1406H92.1244L91.818 26.6469ZM84.5903 23.5614V23.3395C84.5903 22.466 84.6889 21.6735 84.8862 20.962C85.0834 20.2434 85.3722 19.627 85.7526 19.1128C86.1331 18.5985 86.6015 18.2005 87.158 17.9187C87.7145 17.637 88.3485 17.4961 89.06 17.4961C89.7293 17.4961 90.314 17.637 90.8141 17.9187C91.3213 18.2005 91.751 18.602 92.1033 19.1233C92.4625 19.6376 92.7514 20.2469 92.9697 20.9514C93.1881 21.6488 93.3466 22.4131 93.4452 23.2444V23.7304C93.3466 24.5265 93.1881 25.2661 92.9697 25.9495C92.7514 26.6328 92.4625 27.2316 92.1033 27.7458C91.751 28.253 91.3213 28.6475 90.8141 28.9293C90.3069 29.2111 89.7152 29.352 89.0389 29.352C88.3274 29.352 87.6934 29.2075 87.1369 28.9187C86.5874 28.6299 86.1225 28.2248 85.7421 27.7035C85.3687 27.1823 85.0834 26.5694 84.8862 25.8649C84.6889 25.1605 84.5903 24.3926 84.5903 23.5614ZM87.6335 23.3395V23.5614C87.6335 24.0334 87.6688 24.4736 87.7392 24.8822C87.8167 25.2908 87.94 25.6536 88.109 25.9706C88.2851 26.2806 88.5106 26.5236 88.7853 26.6997C89.0671 26.8688 89.4087 26.9533 89.8103 26.9533C90.3316 26.9533 90.7613 26.8371 91.0994 26.6046C91.4376 26.3651 91.6947 26.0375 91.8708 25.6219C92.054 25.2063 92.1596 24.7272 92.1878 24.1848V22.8006C92.1667 22.3568 92.1033 21.9588 91.9976 21.6065C91.899 21.2473 91.751 20.9408 91.5538 20.6872C91.3636 20.4336 91.1241 20.2364 90.8353 20.0955C90.5535 19.9546 90.2189 19.8841 89.8314 19.8841C89.4369 19.8841 89.0988 19.9757 88.817 20.1589C88.5352 20.335 88.3063 20.578 88.1302 20.888C87.9611 21.1979 87.8343 21.5643 87.7498 21.9869C87.6723 22.4026 87.6335 22.8534 87.6335 23.3395ZM101.322 20.1483V29.1406H98.2785V17.7074H101.132L101.322 20.1483ZM100.878 23.0225H100.054C100.054 22.1771 100.163 21.4163 100.381 20.7401C100.6 20.0567 100.906 19.4756 101.301 18.9965C101.695 18.5105 102.164 18.1406 102.706 17.887C103.255 17.6264 103.868 17.4961 104.545 17.4961C105.08 17.4961 105.57 17.5736 106.013 17.7285C106.457 17.8835 106.838 18.1301 107.155 18.4682C107.479 18.8063 107.725 19.2537 107.894 19.8102C108.07 20.3667 108.158 21.0465 108.158 21.8496V29.1406H105.094V21.839C105.094 21.3318 105.024 20.9373 104.883 20.6555C104.742 20.3737 104.534 20.1765 104.259 20.0638C103.992 19.944 103.66 19.8841 103.266 19.8841C102.857 19.8841 102.502 19.9652 102.199 20.1272C101.903 20.2892 101.656 20.5146 101.459 20.8035C101.269 21.0852 101.124 21.4163 101.026 21.7967C100.927 22.1771 100.878 22.5857 100.878 23.0225ZM117.726 26.5623V21.4692C117.726 21.1028 117.666 20.7894 117.546 20.5287C117.426 20.261 117.239 20.0532 116.986 19.9053C116.739 19.7573 116.419 19.6834 116.024 19.6834C115.686 19.6834 115.394 19.7433 115.147 19.863C114.901 19.9757 114.71 20.1413 114.577 20.3597C114.443 20.571 114.376 20.8211 114.376 21.1099H111.333C111.333 20.6238 111.445 20.1624 111.671 19.7256C111.896 19.2889 112.224 18.905 112.653 18.5739C113.083 18.2357 113.594 17.9716 114.186 17.7814C114.784 17.5912 115.454 17.4961 116.193 17.4961C117.081 17.4961 117.87 17.644 118.56 17.9399C119.251 18.2357 119.793 18.6795 120.188 19.2713C120.589 19.863 120.79 20.6027 120.79 21.4903V26.3827C120.79 27.0097 120.829 27.5239 120.906 27.9254C120.984 28.3199 121.096 28.6651 121.244 28.961V29.1406H118.169C118.021 28.8307 117.909 28.4432 117.831 27.9783C117.761 27.5063 117.726 27.0343 117.726 26.5623ZM118.127 22.1771L118.148 23.8995H116.447C116.045 23.8995 115.697 23.9453 115.401 24.0369C115.105 24.1285 114.862 24.2588 114.672 24.4279C114.482 24.5899 114.341 24.7801 114.249 24.9985C114.165 25.2168 114.122 25.4564 114.122 25.717C114.122 25.9776 114.182 26.2136 114.302 26.425C114.422 26.6293 114.594 26.7913 114.82 26.911C115.045 27.0238 115.309 27.0801 115.612 27.0801C116.07 27.0801 116.468 26.9885 116.806 26.8054C117.144 26.6222 117.405 26.3968 117.588 26.1291C117.778 25.8614 117.877 25.6078 117.884 25.3683L118.687 26.6574C118.574 26.9463 118.419 27.2457 118.222 27.5556C118.032 27.8656 117.789 28.1579 117.493 28.4327C117.197 28.7003 116.841 28.9222 116.426 29.0984C116.01 29.2674 115.517 29.352 114.946 29.352C114.221 29.352 113.562 29.2075 112.97 28.9187C112.386 28.6229 111.921 28.2178 111.576 27.7035C111.238 27.1823 111.068 26.5905 111.068 25.9283C111.068 25.3295 111.181 24.7977 111.407 24.3328C111.632 23.8678 111.963 23.4768 112.4 23.1598C112.844 22.8358 113.397 22.5928 114.059 22.4307C114.721 22.2617 115.489 22.1771 116.362 22.1771H118.127ZM130.431 22.3885H126.479L126.458 20.2117H129.776C130.361 20.2117 130.84 20.1378 131.213 19.9898C131.586 19.8348 131.865 19.6129 132.048 19.3241C132.238 19.0282 132.333 18.669 132.333 18.2463C132.333 17.7673 132.241 17.3798 132.058 17.084C131.882 16.7881 131.604 16.5732 131.223 16.4394C130.85 16.3055 130.368 16.2386 129.776 16.2386H127.578V29.1406H124.408V13.7554H129.776C130.671 13.7554 131.47 13.84 132.175 14.009C132.886 14.1781 133.488 14.4352 133.981 14.7804C134.475 15.1256 134.851 15.5623 135.112 16.0907C135.373 16.612 135.503 17.2319 135.503 17.9504C135.503 18.5844 135.359 19.1691 135.07 19.7045C134.788 20.2399 134.341 20.6767 133.728 21.0148C133.122 21.3529 132.329 21.5396 131.35 21.5748L130.431 22.3885ZM130.294 29.1406H125.613L126.849 26.668H130.294C130.85 26.668 131.305 26.5799 131.657 26.4038C132.009 26.2207 132.27 25.9741 132.439 25.6642C132.608 25.3542 132.692 24.9985 132.692 24.5969C132.692 24.1461 132.615 23.7551 132.46 23.424C132.312 23.0929 132.072 22.8393 131.741 22.6632C131.41 22.48 130.973 22.3885 130.431 22.3885H127.377L127.398 20.2117H131.202L131.931 21.0676C132.868 21.0535 133.622 21.2191 134.193 21.5643C134.77 21.9024 135.19 22.3427 135.45 22.8851C135.718 23.4275 135.852 24.0087 135.852 24.6286C135.852 25.6149 135.637 26.4461 135.207 27.1224C134.777 27.7916 134.147 28.2953 133.316 28.6334C132.492 28.9716 131.484 29.1406 130.294 29.1406ZM138.635 23.5402V23.3183C138.635 22.48 138.755 21.7087 138.994 21.0042C139.234 20.2927 139.583 19.6763 140.04 19.155C140.498 18.6337 141.062 18.2287 141.731 17.9399C142.4 17.644 143.168 17.4961 144.035 17.4961C144.901 17.4961 145.672 17.644 146.349 17.9399C147.025 18.2287 147.592 18.6337 148.05 19.155C148.515 19.6763 148.867 20.2927 149.107 21.0042C149.346 21.7087 149.466 22.48 149.466 23.3183V23.5402C149.466 24.3715 149.346 25.1429 149.107 25.8544C148.867 26.5588 148.515 27.1752 148.05 27.7035C147.592 28.2248 147.029 28.6299 146.359 28.9187C145.69 29.2075 144.922 29.352 144.056 29.352C143.189 29.352 142.418 29.2075 141.742 28.9187C141.072 28.6299 140.505 28.2248 140.04 27.7035C139.583 27.1752 139.234 26.5588 138.994 25.8544C138.755 25.1429 138.635 24.3715 138.635 23.5402ZM141.678 23.3183V23.5402C141.678 24.0193 141.721 24.4666 141.805 24.8822C141.89 25.2978 142.023 25.6642 142.207 25.9812C142.397 26.2911 142.643 26.5342 142.946 26.7103C143.249 26.8864 143.619 26.9744 144.056 26.9744C144.478 26.9744 144.841 26.8864 145.144 26.7103C145.447 26.5342 145.69 26.2911 145.873 25.9812C146.056 25.6642 146.19 25.2978 146.275 24.8822C146.366 24.4666 146.412 24.0193 146.412 23.5402V23.3183C146.412 22.8534 146.366 22.4166 146.275 22.0081C146.19 21.5924 146.053 21.2261 145.863 20.9091C145.68 20.5851 145.436 20.3315 145.134 20.1483C144.831 19.9652 144.464 19.8736 144.035 19.8736C143.605 19.8736 143.239 19.9652 142.936 20.1483C142.64 20.3315 142.397 20.5851 142.207 20.9091C142.023 21.2261 141.89 21.5924 141.805 22.0081C141.721 22.4166 141.678 22.8534 141.678 23.3183ZM151.932 23.5402V23.3183C151.932 22.48 152.052 21.7087 152.291 21.0042C152.531 20.2927 152.88 19.6763 153.338 19.155C153.795 18.6337 154.359 18.2287 155.028 17.9399C155.698 17.644 156.465 17.4961 157.332 17.4961C158.198 17.4961 158.97 17.644 159.646 17.9399C160.322 18.2287 160.889 18.6337 161.347 19.155C161.812 19.6763 162.164 20.2927 162.404 21.0042C162.643 21.7087 162.763 22.48 162.763 23.3183V23.5402C162.763 24.3715 162.643 25.1429 162.404 25.8544C162.164 26.5588 161.812 27.1752 161.347 27.7035C160.889 28.2248 160.326 28.6299 159.657 28.9187C158.987 29.2075 158.219 29.352 157.353 29.352C156.486 29.352 155.715 29.2075 155.039 28.9187C154.37 28.6299 153.803 28.2248 153.338 27.7035C152.88 27.1752 152.531 26.5588 152.291 25.8544C152.052 25.1429 151.932 24.3715 151.932 23.5402ZM154.975 23.3183V23.5402C154.975 24.0193 155.018 24.4666 155.102 24.8822C155.187 25.2978 155.321 25.6642 155.504 25.9812C155.694 26.2911 155.941 26.5342 156.243 26.7103C156.546 26.8864 156.916 26.9744 157.353 26.9744C157.776 26.9744 158.138 26.8864 158.441 26.7103C158.744 26.5342 158.987 26.2911 159.17 25.9812C159.354 25.6642 159.487 25.2978 159.572 24.8822C159.664 24.4666 159.709 24.0193 159.709 23.5402V23.3183C159.709 22.8534 159.664 22.4166 159.572 22.0081C159.487 21.5924 159.35 21.2261 159.16 20.9091C158.977 20.5851 158.734 20.3315 158.431 20.1483C158.128 19.9652 157.762 19.8736 157.332 19.8736C156.902 19.8736 156.536 19.9652 156.233 20.1483C155.937 20.3315 155.694 20.5851 155.504 20.9091C155.321 21.2261 155.187 21.5924 155.102 22.0081C155.018 22.4166 154.975 22.8534 154.975 23.3183ZM168.759 12.8995V29.1406H165.715V12.8995H168.759ZM175.965 17.7074L170.999 23.3712L168.336 26.0657L167.227 23.8678L169.34 21.1839L172.309 17.7074H175.965ZM172.806 29.1406L169.424 23.8572L171.527 22.0186L176.314 29.1406H172.806Z" fill="url(#paint1_linear_1_149)"/>
<defs>
<linearGradient id="paint0_linear_1_149" x1="-6" y1="19.5" x2="33" y2="19.5" gradientUnits="userSpaceOnUse">
<stop stop-color="#E57432"/>
<stop offset="1" stop-color="#FF9C65"/>
</linearGradient>
<linearGradient id="paint1_linear_1_149" x1="47.52" y1="21.6406" x2="177.52" y2="21.6406" gradientUnits="userSpaceOnUse">
<stop stop-color="#E57432"/>
<stop offset="1" stop-color="#FF9C65"/>
</linearGradient>
</defs>
</svg>
